<svg xmlns="http://www.w3.org/2000/svg" xmlns:xlink="http://www.w3.org/1999/xlink" width="66" height="66" version="1.1" viewBox="0 0 66 66"><title>0BFFA853-EECE-4497-BF7E-ED7E53E6F424</title><desc>Created with sketchtool.</desc><g id="Page-1" fill="none" fill-rule="evenodd" stroke="none" stroke-width="1"><g id="PrimeReact-Showcase---Homepage" transform="translate(-477.000000, -591.000000)"><g id="homepage" transform="translate(301.000000, 70.000000)"><g id="features" transform="translate(20.000000, 350.000000)"><g id="info-box" transform="translate(92.000000, 171.000000)"><g id="components"><g id="icon-component" transform="translate(64.000000, 0.000000)"><g id="icon-components" transform="translate(0.282053, 0.883341)"><path id="Shape" fill="#222" fill-rule="nonzero" d="M39.8478261,0 L25.1521739,0 C11.3043478,0 0,11.3043478 0,25.1521739 L0,39.8478261 C0,53.6956522 11.3043478,65 25.1521739,65 L39.8478261,65 C53.6956522,65 65,53.6956522 65,39.8478261 L65,25.1521739 C65,11.3043478 53.6956522,0 39.8478261,0 Z M63.5869565,39.8478261 C63.5869565,52.9184783 52.9184783,63.5869565 39.8478261,63.5869565 L25.1521739,63.5869565 C12.0815217,63.5869565 1.41304348,52.9184783 1.41304348,39.8478261 L1.41304348,25.1521739 C1.41304348,12.0815217 12.0815217,1.41304348 25.1521739,1.41304348 L39.8478261,1.41304348 C52.9184783,1.41304348 63.5869565,12.0815217 63.5869565,25.1521739 L63.5869565,39.8478261 Z M59.3478261,39.5652174 C59.3478261,50.4456522 50.4456522,59.3478261 39.5652174,59.3478261 L25.4347826,59.3478261 C14.5543478,59.3478261 5.65217391,50.4456522 5.65217391,39.5652174 L5.65217391,25.4347826 C5.65217391,14.5543478 14.5543478,5.65217391 25.4347826,5.65217391 L39.5652174,5.65217391 C50.4456522,5.65217391 59.3478261,14.5543478 59.3478261,25.4347826 L59.3478261,39.5652174 Z"/><polygon id="Shape" fill="#FFF" points="40.719 24.028 40.719 25.768 46.124 25.768 46.124 43.044 19.932 43.044 19.932 25.768 23.046 25.768 23.046 24.028 18 24.028 18 44.786 48.056 44.786 48.056 24.028"/><rect id="Rectangle-path" width="5.956" height="5.819" x="32.733" y="23.005" fill="#FFF"/><rect id="Rectangle-path" width="9.74" height="9.514" x="34.267" y="29.542" fill="#FFF"/><rect id="Rectangle-path" width="5" height="5.173" x="26.331" y="20.077" fill="#FFF"/><rect id="Rectangle-path" width="3.331" height="3.254" x="28.218" y="31.316" fill="#FFF"/><rect id="Rectangle-path" width="2.61" height="2.551" x="24.885" y="27.355" fill="#FFF"/><rect id="Rectangle-path" width="2.316" height="2.263" x="24.876" y="35.929" fill="#FFF"/></g></g></g></g></g></g></g></g></svg>