<svg xmlns="http://www.w3.org/2000/svg" xmlns:xlink="http://www.w3.org/1999/xlink" width="65" height="65" version="1.1" viewBox="0 0 65 65"><title>326BF021-FA5A-4605-9CA7-DB0CEB3A4448</title><desc>Created with sketchtool.</desc><g id="Page-1" fill="none" fill-rule="evenodd" stroke="none" stroke-width="1"><g id="PrimeReact-Showcase---Homepage" transform="translate(-840.000000, -845.000000)"><g id="homepage" transform="translate(301.000000, 70.000000)"><g id="features" transform="translate(20.000000, 350.000000)"><g id="info-box" transform="translate(92.000000, 171.000000)"><g id="Group" transform="translate(119.000000, 253.000000)"><g id="mobile" transform="translate(240.000000, 1.000000)"><g id="icon-mobile"><g transform="translate(68.000000, 0.000000)"><path id="Shape" fill="#222" fill-rule="nonzero" d="M39.8478261,0 L25.1521739,0 C11.3043478,0 0,11.3043478 0,25.1521739 L0,39.8478261 C0,53.6956522 11.3043478,65 25.1521739,65 L39.8478261,65 C53.6956522,65 65,53.6956522 65,39.8478261 L65,25.1521739 C65,11.3043478 53.6956522,0 39.8478261,0 Z M63.5869565,39.8478261 C63.5869565,52.9184783 52.9184783,63.5869565 39.8478261,63.5869565 L25.1521739,63.5869565 C12.0815217,63.5869565 1.41304348,52.9184783 1.41304348,39.8478261 L1.41304348,25.1521739 C1.41304348,12.0815217 12.0815217,1.41304348 25.1521739,1.41304348 L39.8478261,1.41304348 C52.9184783,1.41304348 63.5869565,12.0815217 63.5869565,25.1521739 L63.5869565,39.8478261 Z M59.3478261,39.5652174 C59.3478261,50.4456522 50.4456522,59.3478261 39.5652174,59.3478261 L25.4347826,59.3478261 C14.5543478,59.3478261 5.65217391,50.4456522 5.65217391,39.5652174 L5.65217391,25.4347826 C5.65217391,14.5543478 14.5543478,5.65217391 25.4347826,5.65217391 L39.5652174,5.65217391 C50.4456522,5.65217391 59.3478261,14.5543478 59.3478261,25.4347826 L59.3478261,39.5652174 Z"/><path id="Shape" fill="#FFF" d="M24,45.8547032 C24,46.8896564 24.8556369,47.7290524 25.9106145,47.7290524 L37.6287318,47.7290524 C38.6837095,47.7290524 39.5393464,46.889344 39.5393464,45.8547032 L39.5393464,22.4003471 L24,22.4003471 L24,45.8547032 Z M31.769514,43.9169386 C32.5235698,43.9169386 33.1371955,44.518917 33.1371955,45.2583478 C33.1371955,45.9977785 32.5235698,46.599757 31.769514,46.599757 C31.0154581,46.599757 30.4018324,45.9977785 30.4018324,45.2583478 C30.4018324,44.518917 31.0154581,43.9169386 31.769514,43.9169386 Z M37.6284134,18 L25.9106145,18 C24.8556369,18 24,18.8390837 24,19.8743492 L24,21.7736897 L39.5393464,21.7736897 L39.5393464,19.8743492 C39.5390279,18.8390837 38.6837095,18 37.6284134,18 Z M28.4208436,20.3285665 C28.1816983,20.3285665 27.9871341,20.1376952 27.9871341,19.9027768 C27.9871341,19.6678584 28.1816983,19.4769872 28.4208436,19.4769872 C28.6599888,19.4769872 28.8545531,19.6678584 28.8545531,19.9027768 C28.8545531,20.1376952 28.6599888,20.3285665 28.4208436,20.3285665 Z M33.7001899,20.2151683 L29.8391564,20.2151683 C29.6630615,20.2151683 29.5207207,20.0752169 29.5207207,19.9027768 C29.5207207,19.7303367 29.6630615,19.5903853 29.8391564,19.5903853 L33.7001899,19.5903853 C33.8762849,19.5903853 34.0186257,19.7303367 34.0186257,19.9027768 C34.0186257,20.0752169 33.8759665,20.2151683 33.7001899,20.2151683 Z"/><g id="mask" fill="#20272A" transform="translate(26.792402, 26.702967)"><polygon id="Shape" points="4.71 6.004 .619 4.528 0 2 3.245 2.629"/><polygon id="Shape" points="6 6.004 10.091 4.528 10.711 2 7.464 2.629"/><polygon id="Shape" points="3.069 2.192 1 1.798 2.404 0 4.171 0"/><polygon id="Shape" points="8.102 2.192 10.17 1.798 8.766 0 7 0"/><polygon id="Shape" points="7.173 2.658 5.71 6.35 6.148 9.152 3.974 9.152 4.467 6.346 3 2.658 3.951 0 6.2 0"/><polygon id="Shape" points=".922 6.556 2.356 7.302 2.356 10.247 0 8.296 0 5 .922 5.366"/><polygon id="Shape" points="9.434 6.556 8 7.302 8 10.247 10.356 8.296 10.356 5 9.434 5.366"/><polygon id="Shape" points="6.83 6 6.294 6.271 6.294 6.779 6.63 9.48 5.911 10.187 5.286 10.193 4.66 10.187 3.94 9.48 4.277 6.779 4.277 6.271 3.742 6 3 7.206 3 11.585 3.766 10.905 5.286 10.889 6.806 10.905 7.57 11.585 7.57 7.206"/><polygon id="Shape" points="6.702 13.395 4.701 13.395 4 12.698 4.701 12 6.702 12 7.426 12.698"/><polygon id="Shape" points="2.306 11.361 1 9.958 1 9 2.306 9.826"/><polygon id="Shape" points="8 11.361 9.305 9.958 9.305 9 8 9.826"/><polygon id="Shape" points="6.641 11.375 3.929 11.375 3.392 12.087 3 11.89 3.917 11 6.664 11 7.57 11.89 7.185 12.087"/></g></g></g></g></g></g></g></g></g></g></svg>